<svg width="1440" height="559" viewBox="0 0 1440 559" fill="none" xmlns="http://www.w3.org/2000/svg">
<g clip-path="url(#clip0_324_213)">
<rect width="1440" height="559" fill="white"/>
<rect y="-0.170898" width="1440" height="560" fill="#F06A6A"/>
<rect y="-0.171875" width="1440" height="560" fill="#F06A6A"/>
<rect x="729" y="57.25" width="368" height="153" rx="56" fill="#444242"/>
<rect x="743.723" y="166.094" width="233.571" height="114.105" rx="57.0527" transform="rotate(-37.5235 743.723 166.094)" fill="#C4C4C4"/>
<rect x="813.215" y="186.039" width="233.571" height="114.105" rx="57.0527" transform="rotate(-37.5235 813.215 186.039)" fill="white"/>
<circle cx="211.478" cy="215.9" r="105.847" transform="rotate(-1.59573 211.478 215.9)" fill="#C4C4C4"/>
<path d="M100.304 3.03809L106.351 220.117L283.331 137.943L100.304 3.03809Z" fill="#C4C4C4"/>
<circle cx="273.746" cy="169.428" r="105.847" transform="rotate(-20.2586 273.746 169.428)" fill="white"/>
<path d="M100.302 3.33398L175.496 207.063L316.875 72.577L100.302 3.33398Z" fill="white"/>
<path d="M406.645 547.414C392.604 494 424.522 439.317 477.936 425.276L541.101 408.672L544.287 420.794C558.328 474.207 526.41 528.89 472.996 542.931L409.831 559.535L406.645 547.414Z" fill="#444242"/>
<path d="M446.388 464.63L497.693 516.425L427.185 534.959L446.388 464.63Z" fill="#F06A6A"/>
<path d="M510.111 503.321L458.372 451.959L528.722 432.833L510.111 503.321Z" fill="#F06A6A"/>
<mask id="mask0_324_213" style="mask-type:alpha" maskUnits="userSpaceOnUse" x="420" y="449" width="42" height="87">
<path d="M422.914 516.408C417.318 495.118 425.237 473.454 441.366 460.511L445.959 465.061L427.319 533.167L422.914 516.408Z" fill="#FF4646" stroke="black"/>
</mask>
<g mask="url(#mask0_324_213)">
<rect x="399.38" y="456.299" width="65.8626" height="96.3949" transform="rotate(-14.7281 399.38 456.299)" fill="#F06A6A"/>
</g>
<mask id="mask1_324_213" style="mask-type:alpha" maskUnits="userSpaceOnUse" x="494" y="432" width="42" height="86">
<path d="M533.474 451.717L528.484 432.734L509.557 502.845L514.669 507.944C531.039 495.018 539.116 473.178 533.474 451.717Z" fill="#FF4646"/>
</mask>
<g mask="url(#mask1_324_213)">
<rect x="556.821" y="511.367" width="65.8626" height="95.8279" transform="rotate(165.272 556.821 511.367)" fill="#F06A6A"/>
</g>
<g filter="url(#filter0_d_324_213)">
<path d="M312.309 388.828H294.73V303.516H312.309V388.828ZM332.406 329.707L324.438 325.078C327.797 319.805 329.535 314.355 329.652 308.73V298.828H343.129V307.91C343.129 311.426 342.152 315.234 340.199 319.336C338.246 323.438 335.648 326.895 332.406 329.707ZM369.789 325.43L370.316 332.52C374.809 327.012 380.883 324.258 388.539 324.258C396.703 324.258 402.309 327.48 405.355 333.926C409.809 327.48 416.156 324.258 424.398 324.258C431.273 324.258 436.391 326.27 439.75 330.293C443.109 334.277 444.789 340.293 444.789 348.34V388.828H427.797V348.398C427.797 344.805 427.094 342.188 425.688 340.547C424.281 338.867 421.801 338.027 418.246 338.027C413.168 338.027 409.652 340.449 407.699 345.293L407.758 388.828H390.824V348.457C390.824 344.785 390.102 342.129 388.656 340.488C387.211 338.848 384.75 338.027 381.273 338.027C376.469 338.027 372.992 340.02 370.844 344.004V388.828H353.91V325.43H369.789ZM537.016 371.25H506.195L500.336 388.828H481.645L513.402 303.516H529.691L561.625 388.828H542.934L537.016 371.25ZM510.941 357.012H532.27L521.547 325.078L510.941 357.012ZM599.477 388.828V303.516H625.727C633.227 303.516 639.926 305.215 645.824 308.613C651.762 311.973 656.391 316.777 659.711 323.027C663.031 329.238 664.691 336.309 664.691 344.238V348.164C664.691 356.094 663.051 363.145 659.77 369.316C656.527 375.488 651.938 380.273 646 383.672C640.062 387.07 633.363 388.789 625.902 388.828H599.477ZM617.055 317.754V374.707H625.551C632.426 374.707 637.68 372.461 641.312 367.969C644.945 363.477 646.801 357.051 646.879 348.691V344.18C646.879 335.508 645.082 328.945 641.488 324.492C637.895 320 632.641 317.754 625.727 317.754H617.055ZM705.59 390C696.293 390 688.715 387.148 682.855 381.445C677.035 375.742 674.125 368.145 674.125 358.652V357.012C674.125 350.645 675.355 344.961 677.816 339.961C680.277 334.922 683.754 331.055 688.246 328.359C692.777 325.625 697.934 324.258 703.715 324.258C712.387 324.258 719.203 326.992 724.164 332.461C729.164 337.93 731.664 345.684 731.664 355.723V362.637H691.293C691.84 366.777 693.48 370.098 696.215 372.598C698.988 375.098 702.484 376.348 706.703 376.348C713.227 376.348 718.324 373.984 721.996 369.258L730.316 378.574C727.777 382.168 724.34 384.98 720.004 387.012C715.668 389.004 710.863 390 705.59 390ZM703.656 337.969C700.297 337.969 697.562 339.102 695.453 341.367C693.383 343.633 692.055 346.875 691.469 351.094H715.023V349.746C714.945 345.996 713.93 343.105 711.977 341.074C710.023 339.004 707.25 337.969 703.656 337.969ZM775.668 371.309C775.668 369.238 774.633 367.617 772.562 366.445C770.531 365.234 767.25 364.16 762.719 363.223C747.641 360.059 740.102 353.652 740.102 344.004C740.102 338.379 742.426 333.691 747.074 329.941C751.762 326.152 757.875 324.258 765.414 324.258C773.461 324.258 779.887 326.152 784.691 329.941C789.535 333.73 791.957 338.652 791.957 344.707H775.023C775.023 342.285 774.242 340.293 772.68 338.73C771.117 337.129 768.676 336.328 765.355 336.328C762.504 336.328 760.297 336.973 758.734 338.262C757.172 339.551 756.391 341.191 756.391 343.184C756.391 345.059 757.27 346.582 759.027 347.754C760.824 348.887 763.832 349.883 768.051 350.742C772.27 351.562 775.824 352.5 778.715 353.555C787.66 356.836 792.133 362.52 792.133 370.605C792.133 376.387 789.652 381.074 784.691 384.668C779.73 388.223 773.324 390 765.473 390C760.16 390 755.434 389.062 751.293 387.188C747.191 385.273 743.969 382.676 741.625 379.395C739.281 376.074 738.109 372.5 738.109 368.672H754.164C754.32 371.68 755.434 373.984 757.504 375.586C759.574 377.188 762.348 377.988 765.824 377.988C769.066 377.988 771.508 377.383 773.148 376.172C774.828 374.922 775.668 373.301 775.668 371.309ZM820.961 388.828H803.969V325.43H820.961V388.828ZM802.973 309.023C802.973 306.484 803.812 304.395 805.492 302.754C807.211 301.113 809.535 300.293 812.465 300.293C815.355 300.293 817.66 301.113 819.379 302.754C821.098 304.395 821.957 306.484 821.957 309.023C821.957 311.602 821.078 313.711 819.32 315.352C817.602 316.992 815.316 317.812 812.465 317.812C809.613 317.812 807.309 316.992 805.551 315.352C803.832 313.711 802.973 311.602 802.973 309.023ZM832.504 356.66C832.504 346.934 834.809 339.102 839.418 333.164C844.066 327.227 850.316 324.258 858.168 324.258C865.121 324.258 870.531 326.641 874.398 331.406L875.102 325.43H890.453V386.719C890.453 392.266 889.184 397.09 886.645 401.191C884.145 405.293 880.609 408.418 876.039 410.566C871.469 412.715 866.117 413.789 859.984 413.789C855.336 413.789 850.805 412.852 846.391 410.977C841.977 409.141 838.637 406.758 836.371 403.828L843.871 393.516C848.09 398.242 853.207 400.605 859.223 400.605C863.715 400.605 867.211 399.395 869.711 396.973C872.211 394.59 873.461 391.191 873.461 386.777V383.379C869.555 387.793 864.418 390 858.051 390C850.434 390 844.262 387.031 839.535 381.094C834.848 375.117 832.504 367.207 832.504 357.363V356.66ZM849.438 357.891C849.438 363.633 850.59 368.145 852.895 371.426C855.199 374.668 858.363 376.289 862.387 376.289C867.543 376.289 871.234 374.355 873.461 370.488V343.828C871.195 339.961 867.543 338.027 862.504 338.027C858.441 338.027 855.238 339.688 852.895 343.008C850.59 346.328 849.438 351.289 849.438 357.891ZM919.105 325.43L919.633 332.754C924.164 327.09 930.238 324.258 937.855 324.258C944.574 324.258 949.574 326.23 952.855 330.176C956.137 334.121 957.816 340.02 957.895 347.871V388.828H940.961V348.281C940.961 344.688 940.18 342.09 938.617 340.488C937.055 338.848 934.457 338.027 930.824 338.027C926.059 338.027 922.484 340.059 920.102 344.121V388.828H903.168V325.43H919.105ZM999.965 390C990.668 390 983.09 387.148 977.23 381.445C971.41 375.742 968.5 368.145 968.5 358.652V357.012C968.5 350.645 969.73 344.961 972.191 339.961C974.652 334.922 978.129 331.055 982.621 328.359C987.152 325.625 992.309 324.258 998.09 324.258C1006.76 324.258 1013.58 326.992 1018.54 332.461C1023.54 337.93 1026.04 345.684 1026.04 355.723V362.637H985.668C986.215 366.777 987.855 370.098 990.59 372.598C993.363 375.098 996.859 376.348 1001.08 376.348C1007.6 376.348 1012.7 373.984 1016.37 369.258L1024.69 378.574C1022.15 382.168 1018.71 384.98 1014.38 387.012C1010.04 389.004 1005.24 390 999.965 390ZM998.031 337.969C994.672 337.969 991.938 339.102 989.828 341.367C987.758 343.633 986.43 346.875 985.844 351.094H1009.4V349.746C1009.32 345.996 1008.3 343.105 1006.35 341.074C1004.4 339.004 1001.62 337.969 998.031 337.969ZM1071.33 341.309C1069.03 340.996 1067 340.84 1065.24 340.84C1058.83 340.84 1054.63 343.008 1052.64 347.344V388.828H1035.71V325.43H1051.7L1052.17 332.988C1055.57 327.168 1060.28 324.258 1066.29 324.258C1068.17 324.258 1069.93 324.512 1071.57 325.02L1071.33 341.309Z" fill="white"/>
</g>
<circle cx="1281.5" cy="518.328" r="184.5" fill="white"/>
</g>
<defs>
<filter id="filter0_d_324_213" x="290.73" y="298.828" width="784.836" height="122.961" filterUnits="userSpaceOnUse" color-interpolation-filters="sRGB">
<feFlood flood-opacity="0" result="BackgroundImageFix"/>
<feColorMatrix in="SourceAlpha" type="matrix" values="0 0 0 0 0 0 0 0 0 0 0 0 0 0 0 0 0 0 127 0" result="hardAlpha"/>
<feOffset dy="4"/>
<feGaussianBlur stdDeviation="2"/>
<feComposite in2="hardAlpha" operator="out"/>
<feColorMatrix type="matrix" values="0 0 0 0 0 0 0 0 0 0 0 0 0 0 0 0 0 0 0.25 0"/>
<feBlend mode="normal" in2="BackgroundImageFix" result="effect1_dropShadow_324_213"/>
<feBlend mode="normal" in="SourceGraphic" in2="effect1_dropShadow_324_213" result="shape"/>
</filter>
<clipPath id="clip0_324_213">
<rect width="1440" height="559" fill="white"/>
</clipPath>
</defs>
</svg>
