<svg width="1578" height="900" viewBox="0 0 1578 900" fill="none" xmlns="http://www.w3.org/2000/svg">
<g clip-path="url(#clip0_228_256)">
<rect width="1578" height="900" fill="#93DA68"/>
<path d="M245.496 578.783C236.991 552.479 212.246 539 186.84 539C161.433 539 136.687 552.48 128.183 578.785L123.671 592.784L123.67 592.786C120.637 602.188 115.349 610.811 108.229 618.039C101.111 625.265 92.3421 630.916 82.5815 634.605C72.8215 638.295 62.2967 639.939 51.773 639.428C41.2493 638.917 30.9667 636.263 21.6769 631.643L21.6659 631.638L7.68837 624.643C7.68597 624.642 7.68358 624.64 7.68118 624.639C-19.2725 611.261 -47.3777 618.018 -65.1055 634.196C-82.7725 650.318 -89.8394 675.404 -75.4786 699.439L-75.4748 699.446L-67.848 712.253C-67.8477 712.254 -67.8474 712.254 -67.847 712.255C-45.7939 749.258 -67.0493 794.726 -110.201 806.341L-110.204 806.342L-125.546 810.46C-125.548 810.46 -125.549 810.46 -125.55 810.461C-154.954 818.378 -169.238 841.075 -169.238 863.5C-169.238 885.925 -154.954 908.622 -125.55 916.539L245.496 578.783ZM245.496 578.783C245.496 578.784 245.496 578.784 245.496 578.785M245.496 578.783L245.496 578.785M21.6822 1095.35C21.6804 1095.36 21.6787 1095.36 21.6769 1095.36L7.64531 1102.32L7.6393 1102.32C-19.2924 1115.72 -47.3877 1108.97 -65.1168 1092.79C-82.7817 1076.67 -89.8614 1051.58 -75.5272 1027.53C-75.5252 1027.52 -75.5232 1027.52 -75.5212 1027.52L-67.8573 1014.76L-67.8503 1014.75C-62.7284 1006.17 -59.7588 996.632 -59.1872 986.824C-58.6155 977.016 -60.4588 967.229 -64.5633 958.187C-68.6665 949.148 -74.9161 941.103 -82.8187 934.62C-90.72 928.139 -100.08 923.378 -110.203 920.658L-110.204 920.658L-125.546 916.54L104.667 1112.47C98.0746 1105.78 89.9242 1100.52 80.8135 1097.07C71.7029 1093.63 61.8629 1092.09 52.0154 1092.57C42.1679 1093.04 32.5624 1095.53 23.9035 1099.83L21.6822 1095.35ZM21.6822 1095.35C30.9706 1090.74 41.2513 1088.08 51.773 1087.57C62.2967 1087.06 72.8215 1088.71 82.5815 1092.39C92.3421 1096.08 101.111 1101.73 108.229 1108.96C115.349 1116.19 120.637 1124.81 123.67 1134.21L123.671 1134.22L128.183 1148.22M21.6822 1095.35L128.183 1148.22M245.496 578.785L250.008 592.784L250.009 592.786C253.042 602.188 258.33 610.811 265.45 618.039C272.568 625.265 281.337 630.916 291.097 634.605C300.857 638.295 311.382 639.939 321.906 639.428C332.428 638.917 342.708 636.264 351.997 631.646C351.997 631.645 351.997 631.645 351.998 631.645C351.999 631.644 352.001 631.644 352.002 631.643L366.034 624.685L366.04 624.682C392.971 611.282 421.067 618.027 438.796 634.206C456.463 650.328 463.542 675.426 449.201 699.483C449.201 699.483 449.201 699.484 449.2 699.485L441.536 712.238L441.529 712.249C436.407 720.825 433.438 730.368 432.866 740.176C432.295 749.984 434.138 759.771 438.242 768.813C442.346 777.852 448.595 785.897 456.498 792.38C464.399 798.861 473.759 803.622 483.882 806.342L483.883 806.342L499.225 810.46L245.496 578.785ZM128.183 1148.22C128.183 1148.22 128.184 1148.22 128.184 1148.22L128.183 1148.22ZM245.496 1148.22L245.495 1148.22L245.496 1148.22ZM245.496 1148.22L250.008 1134.22L250.009 1134.21C253.042 1124.81 258.33 1116.19 265.45 1108.96C272.568 1101.73 281.337 1096.08 291.097 1092.39C300.857 1088.71 311.382 1087.06 321.906 1087.57C332.43 1088.08 342.712 1090.74 352.002 1095.36L352.013 1095.36L365.991 1102.36C365.994 1102.36 365.997 1102.36 366 1102.36C392.953 1115.74 421.057 1108.98 438.784 1092.8C456.451 1076.68 463.518 1051.6 449.158 1027.56L449.154 1027.55L441.529 1014.75C441.528 1014.75 441.527 1014.75 441.526 1014.75M245.496 1148.22L441.526 1014.75M441.526 1014.75C436.406 1006.17 433.438 996.63 432.866 986.824C432.295 977.016 434.138 967.229 438.242 958.187C442.346 949.148 448.595 941.103 456.498 934.62C464.399 928.139 473.759 923.378 483.882 920.658L483.883 920.658L499.225 916.54M441.526 1014.75L499.225 916.54M499.225 916.54C499.227 916.54 499.228 916.54 499.229 916.539M499.225 916.54L499.229 916.539M499.229 916.539C528.633 908.622 542.917 885.925 542.917 863.5C542.917 841.075 528.633 818.378 499.229 810.461V916.539ZM186.84 989.179H191.84V989.014C226.278 987.865 259.118 974.878 283.689 952.456C309.462 928.937 324.039 896.935 324.039 863.459C324.039 829.982 309.462 797.98 283.689 774.461C257.931 750.956 223.087 737.821 186.84 737.821C150.58 737.821 115.724 750.961 89.9582 774.473C64.1769 798 49.595 830.012 49.595 863.5C49.595 896.988 64.1769 929 89.9582 952.527C115.724 976.039 150.58 989.179 186.84 989.179Z" fill="#444242" stroke="white" stroke-width="10"/>
<g filter="url(#filter0_d_228_256)">
<path d="M429.309 564H411.73V478.688H429.309V564ZM449.406 504.879L441.438 500.25C444.797 494.977 446.535 489.527 446.652 483.902V474H460.129V483.082C460.129 486.598 459.152 490.406 457.199 494.508C455.246 498.609 452.648 502.066 449.406 504.879ZM486.789 500.602L487.316 507.691C491.809 502.184 497.883 499.43 505.539 499.43C513.703 499.43 519.309 502.652 522.355 509.098C526.809 502.652 533.156 499.43 541.398 499.43C548.273 499.43 553.391 501.441 556.75 505.465C560.109 509.449 561.789 515.465 561.789 523.512V564H544.797V523.57C544.797 519.977 544.094 517.359 542.688 515.719C541.281 514.039 538.801 513.199 535.246 513.199C530.168 513.199 526.652 515.621 524.699 520.465L524.758 564H507.824V523.629C507.824 519.957 507.102 517.301 505.656 515.66C504.211 514.02 501.75 513.199 498.273 513.199C493.469 513.199 489.992 515.191 487.844 519.176V564H470.91V500.602H486.789ZM654.016 546.422H623.195L617.336 564H598.645L630.402 478.688H646.691L678.625 564H659.934L654.016 546.422ZM627.941 532.184H649.27L638.547 500.25L627.941 532.184ZM698.254 500.602L698.781 507.926C703.312 502.262 709.387 499.43 717.004 499.43C723.723 499.43 728.723 501.402 732.004 505.348C735.285 509.293 736.965 515.191 737.043 523.043V564H720.109V523.453C720.109 519.859 719.328 517.262 717.766 515.66C716.203 514.02 713.605 513.199 709.973 513.199C705.207 513.199 701.633 515.23 699.25 519.293V564H682.316V500.602H698.254ZM832.258 527.027H798.508V549.879H838.117V564H780.93V478.688H838V492.926H798.508V513.258H832.258V527.027ZM862.902 500.602L863.43 507.926C867.961 502.262 874.035 499.43 881.652 499.43C888.371 499.43 893.371 501.402 896.652 505.348C899.934 509.293 901.613 515.191 901.691 523.043V564H884.758V523.453C884.758 519.859 883.977 517.262 882.414 515.66C880.852 514.02 878.254 513.199 874.621 513.199C869.855 513.199 866.281 515.23 863.898 519.293V564H846.965V500.602H862.902Z" fill="white"/>
<path d="M912.121 531.832C912.121 522.105 914.426 514.273 919.035 508.336C923.684 502.398 929.934 499.43 937.785 499.43C944.738 499.43 950.148 501.812 954.016 506.578L954.719 500.602H970.07V561.891C970.07 567.438 968.801 572.262 966.262 576.363C963.762 580.465 960.227 583.59 955.656 585.738C951.086 587.887 945.734 588.961 939.602 588.961C934.953 588.961 930.422 588.023 926.008 586.148C921.594 584.312 918.254 581.93 915.988 579L923.488 568.688C927.707 573.414 932.824 575.777 938.84 575.777C943.332 575.777 946.828 574.566 949.328 572.145C951.828 569.762 953.078 566.363 953.078 561.949V558.551C949.172 562.965 944.035 565.172 937.668 565.172C930.051 565.172 923.879 562.203 919.152 556.266C914.465 550.289 912.121 542.379 912.121 532.535V531.832ZM929.055 533.062C929.055 538.805 930.207 543.316 932.512 546.598C934.816 549.84 937.98 551.461 942.004 551.461C947.16 551.461 950.852 549.527 953.078 545.66V519C950.812 515.133 947.16 513.199 942.121 513.199C938.059 513.199 934.855 514.859 932.512 518.18C930.207 521.5 929.055 526.461 929.055 533.062ZM1001.01 564H984.016V500.602H1001.01V564ZM983.02 484.195C983.02 481.656 983.859 479.566 985.539 477.926C987.258 476.285 989.582 475.465 992.512 475.465C995.402 475.465 997.707 476.285 999.426 477.926C1001.14 479.566 1002 481.656 1002 484.195C1002 486.773 1001.12 488.883 999.367 490.523C997.648 492.164 995.363 492.984 992.512 492.984C989.66 492.984 987.355 492.164 985.598 490.523C983.879 488.883 983.02 486.773 983.02 484.195ZM1030.6 500.602L1031.12 507.926C1035.66 502.262 1041.73 499.43 1049.35 499.43C1056.07 499.43 1061.07 501.402 1064.35 505.348C1067.63 509.293 1069.31 515.191 1069.39 523.043V564H1052.45V523.453C1052.45 519.859 1051.67 517.262 1050.11 515.66C1048.55 514.02 1045.95 513.199 1042.32 513.199C1037.55 513.199 1033.98 515.23 1031.59 519.293V564H1014.66V500.602H1030.6ZM1111.46 565.172C1102.16 565.172 1094.58 562.32 1088.72 556.617C1082.9 550.914 1079.99 543.316 1079.99 533.824V532.184C1079.99 525.816 1081.22 520.133 1083.68 515.133C1086.14 510.094 1089.62 506.227 1094.11 503.531C1098.64 500.797 1103.8 499.43 1109.58 499.43C1118.25 499.43 1125.07 502.164 1130.03 507.633C1135.03 513.102 1137.53 520.855 1137.53 530.895V537.809H1097.16C1097.71 541.949 1099.35 545.27 1102.08 547.77C1104.86 550.27 1108.35 551.52 1112.57 551.52C1119.09 551.52 1124.19 549.156 1127.86 544.43L1136.18 553.746C1133.64 557.34 1130.21 560.152 1125.87 562.184C1121.54 564.176 1116.73 565.172 1111.46 565.172ZM1109.52 513.141C1106.16 513.141 1103.43 514.273 1101.32 516.539C1099.25 518.805 1097.92 522.047 1097.34 526.266H1120.89V524.918C1120.81 521.168 1119.8 518.277 1117.84 516.246C1115.89 514.176 1113.12 513.141 1109.52 513.141ZM1176.38 565.172C1167.08 565.172 1159.5 562.32 1153.64 556.617C1147.82 550.914 1144.91 543.316 1144.91 533.824V532.184C1144.91 525.816 1146.14 520.133 1148.61 515.133C1151.07 510.094 1154.54 506.227 1159.04 503.531C1163.57 500.797 1168.72 499.43 1174.5 499.43C1183.18 499.43 1189.99 502.164 1194.95 507.633C1199.95 513.102 1202.45 520.855 1202.45 530.895V537.809H1162.08C1162.63 541.949 1164.27 545.27 1167 547.77C1169.78 550.27 1173.27 551.52 1177.49 551.52C1184.02 551.52 1189.11 549.156 1192.79 544.43L1201.11 553.746C1198.57 557.34 1195.13 560.152 1190.79 562.184C1186.46 564.176 1181.65 565.172 1176.38 565.172ZM1174.45 513.141C1171.09 513.141 1168.35 514.273 1166.24 516.539C1164.17 518.805 1162.84 522.047 1162.26 526.266H1185.81V524.918C1185.73 521.168 1184.72 518.277 1182.77 516.246C1180.81 514.176 1178.04 513.141 1174.45 513.141ZM1247.75 516.48C1245.44 516.168 1243.41 516.012 1241.65 516.012C1235.25 516.012 1231.05 518.18 1229.05 522.516V564H1212.12V500.602H1228.12L1228.59 508.16C1231.98 502.34 1236.69 499.43 1242.71 499.43C1244.58 499.43 1246.34 499.684 1247.98 500.191L1247.75 516.48Z" fill="#444242"/>
</g>
<rect x="516" y="452" width="104" height="20" rx="10" transform="rotate(-90 516 452)" fill="white"/>
<rect x="719" y="452" width="104" height="20" rx="10" transform="rotate(-90 719 452)" fill="white"/>
<rect x="1206" y="451" width="104" height="20" rx="10" transform="rotate(-90 1206 451)" fill="#444242"/>
<rect x="459" y="453" width="145" height="20" rx="10" transform="rotate(-90 459 453)" fill="white"/>
<rect x="662" y="453" width="145" height="20" rx="10" transform="rotate(-90 662 453)" fill="white"/>
<rect x="1149" y="452" width="145" height="20" rx="10" transform="rotate(-90 1149 452)" fill="#444242"/>
<rect x="403" y="452" width="202" height="20" rx="10" transform="rotate(-90 403 452)" fill="white"/>
<rect x="606" y="452" width="202" height="20" rx="10" transform="rotate(-90 606 452)" fill="white"/>
<rect x="1092" y="451" width="170" height="20" rx="10" transform="rotate(-90 1092 451)" fill="#444242"/>
<rect x="1035" y="449" width="200" height="20" rx="10" transform="rotate(-90 1035 449)" fill="#444242"/>
<rect x="978" y="447" width="234" height="20" rx="10" transform="rotate(-90 978 447)" fill="#444242"/>
<rect x="921" y="445" width="260" height="20" rx="10" transform="rotate(-90 921 445)" fill="#444242"/>
<rect x="864" y="443" width="230" height="20" rx="10" transform="rotate(-90 864 443)" fill="white"/>
<rect x="807" y="441" width="160" height="20" rx="10" transform="rotate(-90 807 441)" fill="white"/>
<g filter="url(#filter1_d_228_256)">
<rect x="1288.7" y="707.841" width="104" height="20" rx="10" transform="rotate(-135 1288.7 707.841)" fill="white"/>
<rect x="1370" y="799" width="717" height="17" rx="8.50002" transform="rotate(-90 1370 799)" fill="white"/>
<rect x="1387" y="799" width="275" height="17" rx="8.5" transform="rotate(180 1387 799)" fill="white"/>
<path d="M1377 611C1278.14 611 1198 691.141 1198 790" stroke="white" stroke-width="16"/>
</g>
</g>
<defs>
<filter id="filter0_d_228_256" x="407.73" y="474" width="844.25" height="122.961" filterUnits="userSpaceOnUse" color-interpolation-filters="sRGB">
<feFlood flood-opacity="0" result="BackgroundImageFix"/>
<feColorMatrix in="SourceAlpha" type="matrix" values="0 0 0 0 0 0 0 0 0 0 0 0 0 0 0 0 0 0 127 0" result="hardAlpha"/>
<feOffset dy="4"/>
<feGaussianBlur stdDeviation="2"/>
<feComposite in2="hardAlpha" operator="out"/>
<feColorMatrix type="matrix" values="0 0 0 0 0 0 0 0 0 0 0 0 0 0 0 0 0 0 0.25 0"/>
<feBlend mode="normal" in2="BackgroundImageFix" result="effect1_dropShadow_228_256"/>
<feBlend mode="normal" in="SourceGraphic" in2="effect1_dropShadow_228_256" result="shape"/>
</filter>
<filter id="filter1_d_228_256" x="1112" y="82" width="285" height="727" filterUnits="userSpaceOnUse" color-interpolation-filters="sRGB">
<feFlood flood-opacity="0" result="BackgroundImageFix"/>
<feColorMatrix in="SourceAlpha" type="matrix" values="0 0 0 0 0 0 0 0 0 0 0 0 0 0 0 0 0 0 127 0" result="hardAlpha"/>
<feOffset dx="10" dy="10"/>
<feComposite in2="hardAlpha" operator="out"/>
<feColorMatrix type="matrix" values="0 0 0 0 0.266667 0 0 0 0 0.258824 0 0 0 0 0.258824 0 0 0 1 0"/>
<feBlend mode="normal" in2="BackgroundImageFix" result="effect1_dropShadow_228_256"/>
<feBlend mode="normal" in="SourceGraphic" in2="effect1_dropShadow_228_256" result="shape"/>
</filter>
<clipPath id="clip0_228_256">
<rect width="1578" height="900" fill="white"/>
</clipPath>
</defs>
</svg>
