<svg width="1578" height="900" viewBox="0 0 1578 900" fill="none" xmlns="http://www.w3.org/2000/svg">
<g clip-path="url(#clip0_227_195)">
<rect width="1578" height="900" fill="#F06A6A"/>
<rect x="797" y="137" width="572" height="238" rx="56" fill="#444242"/>
<rect x="820" y="306.099" width="363" height="177.335" rx="88.6675" transform="rotate(-37.5235 820 306.099)" fill="#C4C4C4"/>
<rect x="928" y="337.099" width="363" height="177.335" rx="88.6675" transform="rotate(-37.5235 928 337.099)" fill="white"/>
<circle cx="278.783" cy="371.727" r="164.5" transform="rotate(-1.59573 278.783 371.727)" fill="#C4C4C4"/>
<path d="M106.003 40.9102L115.402 378.279L390.452 250.57L106.003 40.9102Z" fill="#C4C4C4"/>
<circle cx="375.556" cy="299.502" r="164.5" transform="rotate(-20.2586 375.556 299.502)" fill="white"/>
<path d="M106.001 41.3701L222.863 357.992L442.584 148.983L106.001 41.3701Z" fill="white"/>
<path d="M297.768 769.342C283.727 715.928 315.645 661.246 369.059 647.205L520.818 607.312L539.858 679.743C553.899 733.157 521.981 787.84 468.567 801.881L316.808 841.773L297.768 769.342Z" fill="#444242"/>
<path d="M373.621 694.279L453.356 774.775L343.777 803.58L373.621 694.279Z" fill="#F06A6A"/>
<path d="M472.656 754.409L392.247 674.585L501.58 644.861L472.656 754.409Z" fill="#F06A6A"/>
<mask id="mask0_227_195" style="mask-type:alpha" maskUnits="userSpaceOnUse" x="333" y="671" width="64" height="133">
<path d="M396.797 671.454C385.343 674.465 375.055 679.682 366.27 686.529M336.873 774.819C328.124 741.538 340.558 707.67 365.836 687.507L373.265 694.866L343.982 801.863L336.873 774.819Z" fill="#FF4646" stroke="black"/>
</mask>
<g mask="url(#mask0_227_195)">
<rect x="300.566" y="681.33" width="102.359" height="149.81" transform="rotate(-14.7281 300.566 681.33)" fill="#F06A6A"/>
</g>
<mask id="mask1_227_195" style="mask-type:alpha" maskUnits="userSpaceOnUse" x="449" y="644" width="63" height="133">
<path d="M508.966 674.209L501.21 644.707L471.796 753.669L479.74 761.593C505.181 741.505 517.733 707.563 508.966 674.209Z" fill="#FF4646"/>
</mask>
<g mask="url(#mask1_227_195)">
<rect x="545.25" y="766.913" width="102.359" height="148.929" transform="rotate(165.272 545.25 766.913)" fill="#F06A6A"/>
</g>
<g filter="url(#filter0_d_227_195)">
<path d="M384.309 577H366.73V491.688H384.309V577ZM404.406 517.879L396.438 513.25C399.797 507.977 401.535 502.527 401.652 496.902V487H415.129V496.082C415.129 499.598 414.152 503.406 412.199 507.508C410.246 511.609 407.648 515.066 404.406 517.879ZM441.789 513.602L442.316 520.691C446.809 515.184 452.883 512.43 460.539 512.43C468.703 512.43 474.309 515.652 477.355 522.098C481.809 515.652 488.156 512.43 496.398 512.43C503.273 512.43 508.391 514.441 511.75 518.465C515.109 522.449 516.789 528.465 516.789 536.512V577H499.797V536.57C499.797 532.977 499.094 530.359 497.688 528.719C496.281 527.039 493.801 526.199 490.246 526.199C485.168 526.199 481.652 528.621 479.699 533.465L479.758 577H462.824V536.629C462.824 532.957 462.102 530.301 460.656 528.66C459.211 527.02 456.75 526.199 453.273 526.199C448.469 526.199 444.992 528.191 442.844 532.176V577H425.91V513.602H441.789ZM609.016 559.422H578.195L572.336 577H553.645L585.402 491.688H601.691L633.625 577H614.934L609.016 559.422ZM582.941 545.184H604.27L593.547 513.25L582.941 545.184ZM671.477 577V491.688H697.727C705.227 491.688 711.926 493.387 717.824 496.785C723.762 500.145 728.391 504.949 731.711 511.199C735.031 517.41 736.691 524.48 736.691 532.41V536.336C736.691 544.266 735.051 551.316 731.77 557.488C728.527 563.66 723.938 568.445 718 571.844C712.062 575.242 705.363 576.961 697.902 577H671.477ZM689.055 505.926V562.879H697.551C704.426 562.879 709.68 560.633 713.312 556.141C716.945 551.648 718.801 545.223 718.879 536.863V532.352C718.879 523.68 717.082 517.117 713.488 512.664C709.895 508.172 704.641 505.926 697.727 505.926H689.055ZM777.59 578.172C768.293 578.172 760.715 575.32 754.855 569.617C749.035 563.914 746.125 556.316 746.125 546.824V545.184C746.125 538.816 747.355 533.133 749.816 528.133C752.277 523.094 755.754 519.227 760.246 516.531C764.777 513.797 769.934 512.43 775.715 512.43C784.387 512.43 791.203 515.164 796.164 520.633C801.164 526.102 803.664 533.855 803.664 543.895V550.809H763.293C763.84 554.949 765.48 558.27 768.215 560.77C770.988 563.27 774.484 564.52 778.703 564.52C785.227 564.52 790.324 562.156 793.996 557.43L802.316 566.746C799.777 570.34 796.34 573.152 792.004 575.184C787.668 577.176 782.863 578.172 777.59 578.172ZM775.656 526.141C772.297 526.141 769.562 527.273 767.453 529.539C765.383 531.805 764.055 535.047 763.469 539.266H787.023V537.918C786.945 534.168 785.93 531.277 783.977 529.246C782.023 527.176 779.25 526.141 775.656 526.141ZM847.668 559.48C847.668 557.41 846.633 555.789 844.562 554.617C842.531 553.406 839.25 552.332 834.719 551.395C819.641 548.23 812.102 541.824 812.102 532.176C812.102 526.551 814.426 521.863 819.074 518.113C823.762 514.324 829.875 512.43 837.414 512.43C845.461 512.43 851.887 514.324 856.691 518.113C861.535 521.902 863.957 526.824 863.957 532.879H847.023C847.023 530.457 846.242 528.465 844.68 526.902C843.117 525.301 840.676 524.5 837.355 524.5C834.504 524.5 832.297 525.145 830.734 526.434C829.172 527.723 828.391 529.363 828.391 531.355C828.391 533.23 829.27 534.754 831.027 535.926C832.824 537.059 835.832 538.055 840.051 538.914C844.27 539.734 847.824 540.672 850.715 541.727C859.66 545.008 864.133 550.691 864.133 558.777C864.133 564.559 861.652 569.246 856.691 572.84C851.73 576.395 845.324 578.172 837.473 578.172C832.16 578.172 827.434 577.234 823.293 575.359C819.191 573.445 815.969 570.848 813.625 567.566C811.281 564.246 810.109 560.672 810.109 556.844H826.164C826.32 559.852 827.434 562.156 829.504 563.758C831.574 565.359 834.348 566.16 837.824 566.16C841.066 566.16 843.508 565.555 845.148 564.344C846.828 563.094 847.668 561.473 847.668 559.48ZM892.961 577H875.969V513.602H892.961V577ZM874.973 497.195C874.973 494.656 875.812 492.566 877.492 490.926C879.211 489.285 881.535 488.465 884.465 488.465C887.355 488.465 889.66 489.285 891.379 490.926C893.098 492.566 893.957 494.656 893.957 497.195C893.957 499.773 893.078 501.883 891.32 503.523C889.602 505.164 887.316 505.984 884.465 505.984C881.613 505.984 879.309 505.164 877.551 503.523C875.832 501.883 874.973 499.773 874.973 497.195ZM904.504 544.832C904.504 535.105 906.809 527.273 911.418 521.336C916.066 515.398 922.316 512.43 930.168 512.43C937.121 512.43 942.531 514.812 946.398 519.578L947.102 513.602H962.453V574.891C962.453 580.438 961.184 585.262 958.645 589.363C956.145 593.465 952.609 596.59 948.039 598.738C943.469 600.887 938.117 601.961 931.984 601.961C927.336 601.961 922.805 601.023 918.391 599.148C913.977 597.312 910.637 594.93 908.371 592L915.871 581.688C920.09 586.414 925.207 588.777 931.223 588.777C935.715 588.777 939.211 587.566 941.711 585.145C944.211 582.762 945.461 579.363 945.461 574.949V571.551C941.555 575.965 936.418 578.172 930.051 578.172C922.434 578.172 916.262 575.203 911.535 569.266C906.848 563.289 904.504 555.379 904.504 545.535V544.832ZM921.438 546.062C921.438 551.805 922.59 556.316 924.895 559.598C927.199 562.84 930.363 564.461 934.387 564.461C939.543 564.461 943.234 562.527 945.461 558.66V532C943.195 528.133 939.543 526.199 934.504 526.199C930.441 526.199 927.238 527.859 924.895 531.18C922.59 534.5 921.438 539.461 921.438 546.062ZM991.105 513.602L991.633 520.926C996.164 515.262 1002.24 512.43 1009.86 512.43C1016.57 512.43 1021.57 514.402 1024.86 518.348C1028.14 522.293 1029.82 528.191 1029.89 536.043V577H1012.96V536.453C1012.96 532.859 1012.18 530.262 1010.62 528.66C1009.05 527.02 1006.46 526.199 1002.82 526.199C998.059 526.199 994.484 528.23 992.102 532.293V577H975.168V513.602H991.105ZM1071.96 578.172C1062.67 578.172 1055.09 575.32 1049.23 569.617C1043.41 563.914 1040.5 556.316 1040.5 546.824V545.184C1040.5 538.816 1041.73 533.133 1044.19 528.133C1046.65 523.094 1050.13 519.227 1054.62 516.531C1059.15 513.797 1064.31 512.43 1070.09 512.43C1078.76 512.43 1085.58 515.164 1090.54 520.633C1095.54 526.102 1098.04 533.855 1098.04 543.895V550.809H1057.67C1058.21 554.949 1059.86 558.27 1062.59 560.77C1065.36 563.27 1068.86 564.52 1073.08 564.52C1079.6 564.52 1084.7 562.156 1088.37 557.43L1096.69 566.746C1094.15 570.34 1090.71 573.152 1086.38 575.184C1082.04 577.176 1077.24 578.172 1071.96 578.172ZM1070.03 526.141C1066.67 526.141 1063.94 527.273 1061.83 529.539C1059.76 531.805 1058.43 535.047 1057.84 539.266H1081.4V537.918C1081.32 534.168 1080.3 531.277 1078.35 529.246C1076.4 527.176 1073.62 526.141 1070.03 526.141ZM1143.33 529.48C1141.03 529.168 1139 529.012 1137.24 529.012C1130.83 529.012 1126.63 531.18 1124.64 535.516V577H1107.71V513.602H1123.7L1124.17 521.16C1127.57 515.34 1132.28 512.43 1138.29 512.43C1140.17 512.43 1141.93 512.684 1143.57 513.191L1143.33 529.48Z" fill="white"/>
</g>
<circle cx="1368.5" cy="852.5" r="286.5" fill="white"/>
</g>
<defs>
<filter id="filter0_d_227_195" x="362.73" y="487" width="784.836" height="122.961" filterUnits="userSpaceOnUse" color-interpolation-filters="sRGB">
<feFlood flood-opacity="0" result="BackgroundImageFix"/>
<feColorMatrix in="SourceAlpha" type="matrix" values="0 0 0 0 0 0 0 0 0 0 0 0 0 0 0 0 0 0 127 0" result="hardAlpha"/>
<feOffset dy="4"/>
<feGaussianBlur stdDeviation="2"/>
<feComposite in2="hardAlpha" operator="out"/>
<feColorMatrix type="matrix" values="0 0 0 0 0 0 0 0 0 0 0 0 0 0 0 0 0 0 0.25 0"/>
<feBlend mode="normal" in2="BackgroundImageFix" result="effect1_dropShadow_227_195"/>
<feBlend mode="normal" in="SourceGraphic" in2="effect1_dropShadow_227_195" result="shape"/>
</filter>
<clipPath id="clip0_227_195">
<rect width="1578" height="900" fill="white"/>
</clipPath>
</defs>
</svg>
