<svg width="1578" height="900" viewBox="0 0 1578 900" fill="none" xmlns="http://www.w3.org/2000/svg">
<rect width="1578" height="900" fill="#6FC3E8"/>
<rect x="728" y="452" width="433" height="111" fill="#8A88FD" fill-opacity="0.53"/>
<path d="M227 697.312C227 686.266 235.954 677.312 247 677.312H637V819H227V697.312Z" fill="white"/>
<path d="M227 601.533C227 590.488 235.954 581.533 247 581.533H509.798V662.272H227V601.533Z" fill="white"/>
<path d="M227 539C227 527.954 235.954 519 247 519H351.931V563.327H227V539Z" fill="white"/>
<path d="M945 676.8H1335C1346.05 676.8 1355 685.754 1355 696.8V820H945V676.8Z" fill="white"/>
<path d="M1072.2 580H1335C1346.05 580 1355 588.954 1355 600V661.6H1072.2V580Z" fill="white"/>
<path d="M1230.07 520H1335C1346.05 520 1355 528.954 1355 540V564.8H1230.07V520Z" fill="white"/>
<path d="M448.1 112.63C445.921 94.7545 459.871 79 477.879 79H1055.94C1074.01 79 1087.98 94.8591 1085.7 112.786L1054 362H478.5L448.1 112.63Z" fill="white"/>
<rect x="485" y="120" width="566" height="321" fill="#444242"/>
<rect x="547" y="160" width="280" height="37" rx="14" fill="white"/>
<rect x="547" y="215" width="440" height="37" rx="14" fill="white"/>
<rect x="547" y="270" width="280" height="37" rx="14" fill="white"/>
<rect x="547" y="325" width="280" height="37" rx="14" fill="white"/>
<g filter="url(#filter0_d_227_226)">
<path d="M450.309 553H432.73V467.688H450.309V553ZM470.406 493.879L462.438 489.25C465.797 483.977 467.535 478.527 467.652 472.902V463H481.129V472.082C481.129 475.598 480.152 479.406 478.199 483.508C476.246 487.609 473.648 491.066 470.406 493.879ZM507.789 489.602L508.316 496.691C512.809 491.184 518.883 488.43 526.539 488.43C534.703 488.43 540.309 491.652 543.355 498.098C547.809 491.652 554.156 488.43 562.398 488.43C569.273 488.43 574.391 490.441 577.75 494.465C581.109 498.449 582.789 504.465 582.789 512.512V553H565.797V512.57C565.797 508.977 565.094 506.359 563.688 504.719C562.281 503.039 559.801 502.199 556.246 502.199C551.168 502.199 547.652 504.621 545.699 509.465L545.758 553H528.824V512.629C528.824 508.957 528.102 506.301 526.656 504.66C525.211 503.02 522.75 502.199 519.273 502.199C514.469 502.199 510.992 504.191 508.844 508.176V553H491.91V489.602H507.789ZM675.016 535.422H644.195L638.336 553H619.645L651.402 467.688H667.691L699.625 553H680.934L675.016 535.422ZM648.941 521.184H670.27L659.547 489.25L648.941 521.184ZM781.715 530.617C781.715 527.297 780.543 524.758 778.199 523C775.855 521.203 771.637 519.328 765.543 517.375C759.449 515.383 754.625 513.43 751.07 511.516C741.383 506.281 736.539 499.23 736.539 490.363C736.539 485.754 737.828 481.652 740.406 478.059C743.023 474.426 746.754 471.594 751.598 469.562C756.48 467.531 761.949 466.516 768.004 466.516C774.098 466.516 779.527 467.629 784.293 469.855C789.059 472.043 792.75 475.148 795.367 479.172C798.023 483.195 799.352 487.766 799.352 492.883H781.773C781.773 488.977 780.543 485.949 778.082 483.801C775.621 481.613 772.164 480.52 767.711 480.52C763.414 480.52 760.074 481.438 757.691 483.273C755.309 485.07 754.117 487.453 754.117 490.422C754.117 493.195 755.504 495.52 758.277 497.395C761.09 499.27 765.211 501.027 770.641 502.668C780.641 505.676 787.926 509.406 792.496 513.859C797.066 518.312 799.352 523.859 799.352 530.5C799.352 537.883 796.559 543.684 790.973 547.902C785.387 552.082 777.867 554.172 768.414 554.172C761.852 554.172 755.875 552.98 750.484 550.598C745.094 548.176 740.973 544.875 738.121 540.695C735.309 536.516 733.902 531.672 733.902 526.164H751.539C751.539 535.578 757.164 540.285 768.414 540.285C772.594 540.285 775.855 539.445 778.199 537.766C780.543 536.047 781.715 533.664 781.715 530.617ZM830.465 474.016V489.602H841.305V502.023H830.465V533.664C830.465 536.008 830.914 537.688 831.812 538.703C832.711 539.719 834.43 540.227 836.969 540.227C838.844 540.227 840.504 540.09 841.949 539.816V552.648C838.629 553.664 835.211 554.172 831.695 554.172C819.82 554.172 813.766 548.176 813.531 536.184V502.023H804.273V489.602H813.531V474.016H830.465ZM888.707 546.555C884.527 551.633 878.746 554.172 871.363 554.172C864.566 554.172 859.371 552.219 855.777 548.312C852.223 544.406 850.406 538.684 850.328 531.145V489.602H867.262V530.559C867.262 537.16 870.27 540.461 876.285 540.461C882.027 540.461 885.973 538.469 888.121 534.484V489.602H905.113V553H889.176L888.707 546.555ZM915.25 520.832C915.25 510.949 917.457 503.078 921.871 497.219C926.324 491.359 932.398 488.43 940.094 488.43C946.266 488.43 951.363 490.734 955.387 495.344V463H972.379V553H957.086L956.266 546.262C952.047 551.535 946.617 554.172 939.977 554.172C932.516 554.172 926.52 551.242 921.988 545.383C917.496 539.484 915.25 531.301 915.25 520.832ZM932.184 522.062C932.184 528 933.219 532.551 935.289 535.715C937.359 538.879 940.367 540.461 944.312 540.461C949.547 540.461 953.238 538.254 955.387 533.84V508.82C953.277 504.406 949.625 502.199 944.43 502.199C936.266 502.199 932.184 508.82 932.184 522.062ZM1014.68 554.172C1005.39 554.172 997.809 551.32 991.949 545.617C986.129 539.914 983.219 532.316 983.219 522.824V521.184C983.219 514.816 984.449 509.133 986.91 504.133C989.371 499.094 992.848 495.227 997.34 492.531C1001.87 489.797 1007.03 488.43 1012.81 488.43C1021.48 488.43 1028.3 491.164 1033.26 496.633C1038.26 502.102 1040.76 509.855 1040.76 519.895V526.809H1000.39C1000.93 530.949 1002.57 534.27 1005.31 536.77C1008.08 539.27 1011.58 540.52 1015.8 540.52C1022.32 540.52 1027.42 538.156 1031.09 533.43L1039.41 542.746C1036.87 546.34 1033.43 549.152 1029.1 551.184C1024.76 553.176 1019.96 554.172 1014.68 554.172ZM1012.75 502.141C1009.39 502.141 1006.66 503.273 1004.55 505.539C1002.48 507.805 1001.15 511.047 1000.56 515.266H1024.12V513.918C1024.04 510.168 1023.02 507.277 1021.07 505.246C1019.12 503.176 1016.34 502.141 1012.75 502.141ZM1066.01 489.602L1066.54 496.926C1071.07 491.262 1077.14 488.43 1084.76 488.43C1091.48 488.43 1096.48 490.402 1099.76 494.348C1103.04 498.293 1104.72 504.191 1104.8 512.043V553H1087.87V512.453C1087.87 508.859 1087.09 506.262 1085.52 504.66C1083.96 503.02 1081.36 502.199 1077.73 502.199C1072.96 502.199 1069.39 504.23 1067.01 508.293V553H1050.07V489.602H1066.01ZM1137.96 474.016V489.602H1148.8V502.023H1137.96V533.664C1137.96 536.008 1138.41 537.688 1139.31 538.703C1140.21 539.719 1141.93 540.227 1144.47 540.227C1146.34 540.227 1148 540.09 1149.45 539.816V552.648C1146.13 553.664 1142.71 554.172 1139.2 554.172C1127.32 554.172 1121.27 548.176 1121.03 536.184V502.023H1111.77V489.602H1121.03V474.016H1137.96Z" fill="white"/>
</g>
<ellipse cx="727.5" cy="593.545" rx="20.5" ry="20.4545" fill="#6B8CFB"/>
<rect x="725.04" y="452" width="6.56" height="130.909" fill="#6B8CFB"/>
<ellipse rx="20.5" ry="20.4545" transform="matrix(1 0 0 -1 1160.5 421.455)" fill="#6B8CFB"/>
<rect width="6.56" height="130.909" transform="matrix(1 0 0 -1 1158.04 563)" fill="#6B8CFB"/>
<defs>
<filter id="filter0_d_227_226" x="428.73" y="463" width="724.719" height="99.1719" filterUnits="userSpaceOnUse" color-interpolation-filters="sRGB">
<feFlood flood-opacity="0" result="BackgroundImageFix"/>
<feColorMatrix in="SourceAlpha" type="matrix" values="0 0 0 0 0 0 0 0 0 0 0 0 0 0 0 0 0 0 127 0" result="hardAlpha"/>
<feOffset dy="4"/>
<feGaussianBlur stdDeviation="2"/>
<feComposite in2="hardAlpha" operator="out"/>
<feColorMatrix type="matrix" values="0 0 0 0 0 0 0 0 0 0 0 0 0 0 0 0 0 0 0.25 0"/>
<feBlend mode="normal" in2="BackgroundImageFix" result="effect1_dropShadow_227_226"/>
<feBlend mode="normal" in="SourceGraphic" in2="effect1_dropShadow_227_226" result="shape"/>
</filter>
</defs>
</svg>
